# xmcd
# 
# Track frame offsets:
#     183
#     16555
#     32528
#     48505
#     61518
#     77700
#     94060
#     113623
#     130798
#     143358
#     159888
#     175745
#     191823
#     207235
#     223400
#     242500
# 
# Disc length: 3476
# 
# Revision: 1
# Processed by: cddbd v1.5.2PL0 Copyright (c) Steve Scherf et al.
# Submitted via: fre:ac v1.0.17
# 
DISCID=c30d9210
DTITLE=Various Artist - COUNTRY CLUB
DYEAR=0
DGENRE=Country
TTITLE0=ALABAMA - JUKEBOX IN MY MIND
TTITLE1=WILD ROSE - LONESOME HIGHWAY
TTITLE2=TRAVIS RANDY - FOREVER AND EVER AMEN
TTITLE3=STONE DOUG - FOURTEEN MINUTES OLD
TTITLE4=SHENANDOAH - GHOST IN THIS HOUSE
TTITLE5=JACKSON ALAN - HERE IN THE REAL WORLD
TTITLE6=JUDDS THE - YOUNG LOVE
TTITLE7=OVERSTREET PAUL - SOWIN` LOVE
TTITLE8=BLACK CLINT - KILLIN` TIME
TTITLE9=BROOKS GARTH - IF TOMORROW NEVER COMES
TTITLE10=BAILLIE AND THE BOYS - TREAT ME LIKE A STRANGER
TTITLE11=STRAIT GEORGE - DRINKING CHAMPAGNE
TTITLE12=TUCKER TANJA - SHOTGUN
TTITLE13=WHITLEY KEITH - I`M NO STRANGER TO THE RAIN
TTITLE14=RESTLESS HEART - DANCY`S DREAM
TTITLE15=GILL VINCE - POCKET FULL OF GOLD
EXTD=
EXTT0=
EXTT1=
EXTT2=
EXTT3=
EXTT4=
EXTT5=
EXTT6=
EXTT7=
EXTT8=
EXTT9=
EXTT10=
EXTT11=
EXTT12=
EXTT13=
EXTT14=
EXTT15=
PLAYORDER=
